# Blender 4.3.2
# www.blender.org
mtllib car-windows.mtl
o Car_Ice.001
v 2.824773 3.300485 4.704638
v 2.760032 2.961754 4.629640
v 2.870481 3.316606 4.816497
v 2.873491 2.944800 4.817609
v 2.867951 2.937675 4.811743
v 2.859918 3.314059 4.805373
v 2.925485 2.953912 4.872344
v 3.612569 3.243819 5.596587
v 4.085611 3.201173 6.093874
v 4.053482 2.701937 6.057324
v 4.617250 3.165598 6.363876
v 4.812843 3.166625 6.177908
v 4.798154 2.799911 6.160432
v 2.811923 3.260803 4.883303
v 2.824417 2.991999 4.826413
v 3.497586 3.326947 4.074083
v 3.198054 3.322044 4.357547
v 3.121333 2.975945 4.291025
v 3.609152 3.317995 4.093005
v 3.864687 2.923120 4.359582
v 3.679029 2.939858 4.164408
v 4.820809 2.729141 5.364114
v 4.342053 2.754701 4.860723
v 5.082480 3.150507 5.920035
v 3.624661 3.268094 4.047152
v 3.694359 3.262352 4.048701
v 3.611262 3.155839 4.041571
v 3.637589 3.092557 4.061511
v 3.633731 2.996251 4.056921
v 3.148995 3.302188 4.396370
v 3.072273 2.956089 4.329847
v 2.772742 2.951186 4.613312
v 2.882946 3.312007 4.829581
v 2.887877 3.303938 4.834723
v 2.889752 3.290938 4.836623
v 2.784924 2.961729 4.724552
v 3.130142 3.285899 5.089426
v 3.606855 3.226733 5.590483
v 3.592819 2.750765 5.573091
v 4.817420 3.149115 6.172052
v 2.811418 3.252805 4.890584
v 2.808453 3.134897 4.812143
v 2.808959 3.142895 4.804862
v 2.827722 3.096975 4.832271
v 2.771714 3.101455 4.885933
v 2.776380 2.974196 4.870581
v 3.510393 3.304086 4.052754
v 3.186172 3.302383 4.361023
v 3.121431 2.963652 4.286024
v 3.632180 3.315943 4.117213
v 3.637112 3.307874 4.122355
v 3.625624 2.961306 4.108359
v 3.544366 2.944701 4.022803
v 3.534328 2.954948 4.012302
v 4.834846 3.205109 5.381506
v 4.337745 2.772691 4.856290
v 5.077903 3.168018 5.925891
v 5.065459 3.175222 5.938345
v 4.895336 3.174329 6.100098
v 5.050188 2.793965 5.920177
v 5.069196 2.818869 5.904231
v 3.615120 3.252145 4.046160
v 3.619766 3.265425 4.046900
v 3.697036 3.257458 4.048543
v 3.697928 3.248733 4.048160
v 3.614831 3.142220 4.041029
v 3.690292 2.983101 4.001990
v 3.686710 2.980218 4.005150
v 3.084156 2.975750 4.326372
v 2.876390 2.957370 4.820727
v 2.956863 3.308819 4.907306
v 3.118345 3.294260 5.077065
v 4.073815 3.209533 6.081513
v 4.089920 3.183183 6.098307
v 3.588511 2.768755 5.568658
v 4.611269 3.148032 6.368061
v 2.812199 3.262447 4.874683
v 2.811038 3.244074 4.891410
v 2.806758 3.131867 4.877158
v 2.828275 3.088306 4.831002
v 3.134140 2.953085 4.269696
v 3.440624 2.965329 3.982538
v 3.622726 2.948736 4.105241
v 3.617186 2.941611 4.099375
v 3.534158 2.965664 4.012183
v 3.852308 2.916939 4.346529
v 4.374182 3.253936 4.897273
v 4.353850 2.746340 4.873084
v 5.063213 2.801303 5.908415
v 3.628127 3.137561 4.041158
v 3.619496 3.139158 4.041008
v 3.641108 3.106022 4.059318
v 3.636173 2.982817 4.053446
v 3.136188 3.325049 4.417699
v 2.759934 2.974047 4.634640
v 4.065861 2.708119 6.070378
v 3.604616 2.742404 5.585452
v 4.597984 2.816394 6.352257
v 2.813441 3.264668 4.827025
v 2.811684 3.257715 4.887944
v 2.825833 3.101740 4.834477
v 2.810967 2.974378 4.837695
v 2.817316 2.975651 4.831766
v 3.191103 3.314703 4.361241
v 3.537456 2.948524 4.015557
v 3.688004 3.289487 4.175780
v 3.690825 2.931497 4.176769
v 3.689424 3.139146 4.042830
v 3.651038 3.110178 4.050228
v 3.680362 2.978945 4.011080
v 2.836656 3.320145 4.701163
v 3.144817 3.321764 4.408165
v 3.079225 2.963430 4.326154
v 2.874272 3.316264 4.820483
v 2.859001 2.935007 4.802314
v 2.788221 2.944587 4.727925
v 2.847176 3.292773 4.791853
v 3.134451 3.267909 5.093858
v 3.121167 2.936271 5.078054
v 2.941591 2.927561 4.889137
v 3.624948 3.250000 5.609641
v 4.630277 3.172936 6.352115
v 4.804136 2.817477 6.156248
v 4.615005 2.791679 6.333946
v 2.813196 3.247932 4.808625
v 2.768194 3.087990 4.888126
v 2.770131 2.975403 4.876628
v 3.506215 3.323663 4.064549
v 3.433672 2.957988 3.986232
v 3.445554 2.977649 3.982757
v 3.638986 3.294874 4.124255
v 3.608235 2.938943 4.089946
v 3.693718 3.306573 4.181884
v 3.879376 3.289835 4.377058
v 4.863043 2.817786 6.100240
v 3.692483 3.143804 4.043127
v 3.695228 3.106307 4.007861
v 3.697669 3.092873 4.004386
v 3.693811 2.996566 3.999797
v 3.645774 2.978764 4.043965
v 3.639526 2.979970 4.050013
v 2.846594 3.323527 4.693043
v 2.764112 2.954471 4.622845
v 2.795132 2.940765 4.735171
v 3.103074 2.913003 5.058897
v 2.929794 2.935922 4.876776
v 4.602561 2.798883 6.346401
v 2.813618 3.263833 4.818287
v 2.809338 3.151626 4.804036
v 2.769442 3.096669 4.887684
v 2.764337 2.991684 4.883537
v 2.823170 2.983321 4.826855
v 3.423734 2.954606 3.994352
v 3.596410 3.296709 4.079485
v 3.601607 3.310278 4.085026
v 4.880064 2.793071 6.081929
v 3.633391 3.268975 4.047421
v 3.689694 3.265414 4.048722
v 3.694071 3.152426 4.043570
v 3.675799 3.135596 4.042309
v 3.685626 3.110360 4.017342
v 3.148897 3.314481 4.401371
v 2.944484 3.302637 4.894252
v 3.115453 2.919184 5.071950
v 4.071575 2.725205 6.076482
v 4.785128 2.792572 6.172194
v 2.813511 3.256549 4.810278
v 2.813628 3.261191 4.813373
v 2.808692 3.137985 4.807501
v 2.816232 3.105793 4.843958
v 2.781644 3.105611 4.876843
v 2.764889 2.983015 4.882268
v 2.766778 2.978250 4.880062
v 2.820898 2.978534 4.828606
v 3.510295 3.316380 4.057755
v 3.883685 3.271845 4.381491
v 4.356090 3.230669 4.878115
v 4.802717 2.705873 5.344956
v 4.882310 3.166991 6.111859
v 4.876328 3.149425 6.116044
v 3.616707 3.260768 4.046603
v 3.612155 3.147114 4.041187
v 3.697117 3.101542 4.005655
v 2.829704 3.312804 4.704857
v 3.062335 2.952708 4.337968
v 2.785093 2.951012 4.724670
v 2.852372 3.306343 4.797394
v 2.938770 3.285551 4.888148
v 4.800400 3.173830 6.190362
v 2.807180 3.147768 4.886820
v 2.806865 3.139151 4.885168
v 2.806749 3.134509 4.882073
v 2.806935 3.131032 4.868421
v 2.808177 3.133253 4.820762
v 2.822480 3.104587 4.837911
v 2.775296 3.104339 4.882773
v 3.207992 3.325426 4.349427
v 3.125511 2.956369 4.279230
v 3.619715 3.320542 4.104129
v 3.623507 3.320200 4.108115
v 3.706097 3.312755 4.194938
v 3.867579 3.298196 4.364697
v 3.870401 2.940207 4.365686
v 3.674720 2.957848 4.159976
v 4.361804 3.247755 4.884219
v 4.823049 3.213470 5.369145
v 4.839154 3.187119 5.385939
v 4.815095 2.712054 5.358010
v 4.867620 2.800275 6.094384
v 3.681063 3.267011 4.048572
v 3.684530 3.136478 4.042578
v 3.638836 3.101236 4.061068
v 3.644691 3.108906 4.056157
v 3.691875 3.109154 4.011295
v 3.692564 2.987888 4.000239
v 3.634284 2.987582 4.055652
vn -0.6624 0.2791 -0.6952
vn -0.6619 0.2801 -0.6953
vn -0.7247 -0.0038 0.6890
vn 0.6879 -0.0620 0.7232
vn 0.9989 -0.0411 0.0241
vn 0.9989 -0.0412 0.0241
vn -0.6616 0.2797 -0.6957
vn -0.6631 0.2795 -0.6944
vn 0.7247 0.0038 -0.6890
vn -0.0261 -0.0465 0.9986
vn -0.0260 -0.0465 0.9986
vn 0.6879 -0.0620 0.7231
vn -0.6627 0.2776 -0.6955
vn -0.6605 0.2801 -0.6966
vn -0.6539 0.2806 -0.7026
vn -0.6627 0.2776 -0.6956
vn -0.6627 0.2775 -0.6955
vn -0.6540 0.2805 -0.7026
vn -0.7247 -0.0040 0.6890
vn -0.7248 -0.0038 0.6890
vn -0.7247 -0.0039 0.6890
vn -0.7247 -0.0038 0.6891
vn 0.6879 -0.0621 0.7232
vn 0.9989 -0.0412 0.0242
vn 0.9989 -0.0413 0.0242
vn 0.9989 -0.0413 0.0241
vn 0.9989 -0.0410 0.0242
vn 0.9989 -0.0410 0.0240
vn 0.9989 -0.0411 0.0242
vn 0.6878 -0.0620 0.7232
vn 0.6879 -0.0621 0.7231
vn 0.6878 -0.0620 0.7233
vn 0.6879 -0.0619 0.7232
vn -0.6587 0.2802 -0.6983
vn -0.6703 0.2805 -0.6871
vn -0.6627 0.2777 -0.6955
vn -0.6703 0.2805 -0.6870
vn 0.7247 0.0039 -0.6890
vn 0.7247 0.0038 -0.6891
vn -0.0258 -0.0466 0.9986
vn -0.0260 -0.0463 0.9986
vn -0.0260 -0.0466 0.9986
vn -0.0261 -0.0466 0.9986
vn -0.0260 -0.0464 0.9986
vn -0.0262 -0.0464 0.9986
vn 0.6881 -0.0620 0.7230
vn 0.6879 -0.0618 0.7232
vn 0.6880 -0.0620 0.7231
vn 0.6879 -0.0622 0.7231
vt 0.404989 0.326158
vt 0.404805 0.314982
vt 0.407641 0.485149
vt 0.408128 0.314734
vt 0.412496 0.318514
vt 0.412227 0.494623
vt 0.416020 0.313203
vt 0.425203 0.484372
vt 0.415399 0.492794
vt 0.450369 0.253210
vt 0.474329 0.485048
vt 0.449748 0.493470
vt 0.493991 0.313203
vt 0.493991 0.484372
vt 0.493991 0.492794
vt 0.412105 0.468617
vt 0.410574 0.407482
vt 0.410134 0.415912
vt 0.411424 0.393058
vt 0.411424 0.331923
vt 0.411424 0.340353
vt 0.404832 0.316605
vt 0.407739 0.491141
vt 0.407798 0.494702
vt 0.411774 0.313203
vt 0.407924 0.322794
vt 0.411579 0.496286
vt 0.424324 0.496286
vt 0.424945 0.316695
vt 0.415141 0.325117
vt 0.473450 0.496961
vt 0.474071 0.256701
vt 0.449490 0.265123
vt 0.493991 0.496286
vt 0.493991 0.316695
vt 0.493991 0.325117
vt 0.411985 0.408077
vt 0.411768 0.470588
vt 0.410165 0.466324
vt 0.411424 0.332518
vt 0.411424 0.395029
vt 0.411424 0.390765
vt 0.407798 0.494702
vt 0.407825 0.496325
vt 0.407825 0.496325
vt 0.407641 0.485149
vt 0.404890 0.320165
vt 0.404805 0.314981
vt 0.404832 0.316605
vt 0.411774 0.496286
vt 0.411579 0.496286
vt 0.411043 0.494612
vt 0.410672 0.490594
vt 0.410434 0.483877
vt 0.407924 0.322794
vt 0.407954 0.317673
vt 0.408490 0.313203
vt 0.411774 0.313203
vt 0.412227 0.314866
vt 0.412619 0.324654
vt 0.412619 0.484836
vt 0.412496 0.490975
vt 0.415141 0.484372
vt 0.415141 0.325117
vt 0.415399 0.316695
vt 0.424324 0.313203
vt 0.424945 0.316695
vt 0.425203 0.325117
vt 0.424945 0.492794
vt 0.424324 0.496286
vt 0.416020 0.496286
vt 0.449490 0.485048
vt 0.449490 0.265123
vt 0.449748 0.256701
vt 0.473450 0.253210
vt 0.474071 0.256701
vt 0.474329 0.265123
vt 0.474071 0.493470
vt 0.473450 0.496962
vt 0.450369 0.496962
vt 0.493991 0.484372
vt 0.493991 0.325117
vt 0.493991 0.316695
vt 0.493991 0.313203
vt 0.493991 0.492794
vt 0.493991 0.496286
vt 0.410134 0.462159
vt 0.410165 0.466324
vt 0.410237 0.468617
vt 0.410357 0.469993
vt 0.410574 0.470588
vt 0.411768 0.470588
vt 0.411985 0.469993
vt 0.412177 0.466324
vt 0.412208 0.462159
vt 0.412208 0.415912
vt 0.412177 0.411746
vt 0.412105 0.409453
vt 0.411985 0.408077
vt 0.411768 0.407482
vt 0.410357 0.408077
vt 0.410237 0.409453
vt 0.410165 0.411746
vt 0.411424 0.386600
vt 0.411424 0.390765
vt 0.411424 0.393058
vt 0.411424 0.394434
vt 0.411424 0.395029
vt 0.411424 0.386600
vt 0.411424 0.336187
vt 0.411424 0.333894
vt 0.411424 0.332518
vt 0.411424 0.331923
vt 0.411424 0.332518
vt 0.411424 0.336187
vt 0.407739 0.491141
vt 0.404989 0.326158
vt 0.404890 0.320165
vt 0.404805 0.314981
vt 0.411774 0.496286
vt 0.412227 0.494623
vt 0.412496 0.490975
vt 0.412619 0.484836
vt 0.412619 0.324654
vt 0.412496 0.318514
vt 0.412227 0.314866
vt 0.408490 0.313203
vt 0.408128 0.314734
vt 0.407954 0.317673
vt 0.410434 0.483877
vt 0.410672 0.490594
vt 0.411043 0.494611
vt 0.415141 0.484372
vt 0.415399 0.492794
vt 0.416020 0.496286
vt 0.424945 0.492794
vt 0.425203 0.484372
vt 0.425203 0.325117
vt 0.424324 0.313203
vt 0.416020 0.313203
vt 0.415399 0.316695
vt 0.449490 0.485048
vt 0.449748 0.493470
vt 0.450369 0.496961
vt 0.474071 0.493470
vt 0.474329 0.485048
vt 0.474329 0.265123
vt 0.473450 0.253210
vt 0.450369 0.253210
vt 0.449748 0.256701
vt 0.493991 0.313203
vt 0.410134 0.462159
vt 0.410134 0.415911
vt 0.410165 0.411746
vt 0.410237 0.409453
vt 0.410357 0.408077
vt 0.410574 0.407482
vt 0.411768 0.407482
vt 0.412105 0.409453
vt 0.412177 0.411746
vt 0.412208 0.415911
vt 0.412208 0.462159
vt 0.412177 0.466324
vt 0.412105 0.468617
vt 0.411985 0.469993
vt 0.410574 0.470588
vt 0.410357 0.469993
vt 0.410237 0.468617
vt 0.411424 0.386599
vt 0.411424 0.340352
vt 0.411424 0.336187
vt 0.411424 0.333894
vt 0.411424 0.331923
vt 0.411424 0.393058
vt 0.411424 0.394434
s 1
usemtl Material_#1389
f 69/1/1 32/2/2 1/3/1
s 0
f 116/4/3 4/5/3 33/6/3
f 120/7/3 118/8/3 163/9/3
f 97/10/3 74/11/3 8/12/3
f 124/13/4 40/14/4 11/15/4
s 1
f 100/16/5 194/17/6 149/18/6
f 45/19/4 102/20/4 15/21/4
f 198/22/7 104/23/8 128/24/7
s 0
f 132/25/9 85/26/9 199/27/9
f 202/28/9 20/29/9 204/30/9
f 206/31/9 208/32/9 56/33/9
f 59/34/4 209/35/4 61/36/4
s 1
f 211/37/10 210/38/11 181/39/11
f 68/40/4 161/41/4 212/42/12
f 1/3/1 184/23/13 111/43/13
f 111/43/13 142/44/13 94/45/2
f 94/45/2 112/43/13 162/23/14
f 162/23/14 30/46/15 69/1/1
f 69/1/1 113/47/16 31/22/13
f 31/22/13 185/48/17 32/2/2
f 32/2/2 143/49/13 2/47/14
f 2/47/14 95/1/18 1/3/1
f 1/3/1 111/43/13 94/45/2
f 94/45/2 162/23/14 69/1/1
f 69/1/1 31/22/13 32/2/2
f 32/2/2 2/47/14 1/3/1
f 1/3/1 94/45/2 69/1/1
s 0
f 33/6/19 114/50/19 3/51/19
f 3/51/3 6/52/3 187/53/3
f 187/53/3 117/54/3 36/55/3
f 36/55/20 186/56/20 116/4/20
f 116/4/21 144/57/21 115/58/21
f 115/58/3 5/59/3 4/5/3
f 4/5/22 70/60/22 35/61/22
f 35/61/3 34/62/3 33/6/3
f 33/6/22 3/51/22 187/53/22
f 187/53/22 36/55/22 116/4/22
f 116/4/3 115/58/3 4/5/3
f 4/5/3 35/61/3 33/6/3
f 33/6/3 187/53/3 116/4/3
f 163/9/3 188/63/3 7/64/3
f 7/64/3 146/65/3 120/7/3
f 120/7/3 145/66/3 164/67/3
f 164/67/3 119/68/3 118/8/3
f 118/8/3 37/69/3 72/70/3
f 72/70/3 71/71/3 163/9/3
f 163/9/22 7/64/22 120/7/22
f 120/7/3 164/67/3 118/8/3
f 118/8/3 72/70/3 163/9/3
f 8/12/22 38/72/22 75/73/22
f 75/73/22 39/74/22 97/10/22
f 97/10/3 10/75/3 96/76/3
f 96/76/3 165/77/3 74/11/3
f 74/11/22 9/78/22 73/79/22
f 73/79/3 121/80/3 8/12/3
f 8/12/3 75/73/3 97/10/3
f 97/10/3 96/76/3 74/11/3
f 74/11/3 73/79/3 8/12/3
f 11/15/12 76/81/12 98/82/12
f 98/82/12 147/83/12 124/13/12
f 124/13/4 166/84/4 13/35/4
f 13/35/4 123/36/4 40/14/4
f 40/14/4 12/85/4 189/34/4
f 189/34/23 122/86/23 11/15/23
f 11/15/12 98/82/12 124/13/12
f 124/13/4 13/35/4 40/14/4
f 40/14/4 189/34/4 11/15/4
s 1
f 149/18/6 125/87/24 167/88/6
f 167/88/6 168/89/25 148/90/6
f 148/90/6 99/91/26 77/92/6
f 77/92/6 14/93/27 100/16/5
f 100/16/5 41/94/6 78/95/6
f 78/95/6 190/96/6 191/97/6
f 191/97/6 192/98/28 79/99/5
f 79/99/5 193/100/5 194/17/6
f 194/17/6 42/101/6 169/102/5
f 169/102/5 43/103/29 149/18/6
f 149/18/6 167/88/6 148/90/6
f 148/90/6 77/92/6 100/16/5
f 100/16/5 78/95/6 191/97/6
f 191/97/6 79/99/5 194/17/6
f 194/17/6 169/102/5 149/18/6
f 149/18/6 148/90/6 100/16/5
f 100/16/5 191/97/6 194/17/6
f 15/21/4 80/104/30 44/105/12
f 44/105/12 101/106/12 195/107/12
f 195/107/12 170/108/4 171/108/4
f 171/108/4 196/107/31 45/19/4
f 45/19/4 150/105/32 126/109/30
f 126/109/30 151/21/4 172/110/4
f 172/110/4 173/111/4 127/112/4
f 127/112/4 46/113/4 102/20/4
f 102/20/4 103/114/33 174/111/4
f 174/111/4 152/115/4 15/21/4
f 15/21/4 44/105/12 195/107/12
f 195/107/12 171/108/4 45/19/4
f 45/19/4 126/109/30 172/110/4
f 172/110/4 127/112/4 102/20/4
f 102/20/4 174/111/4 15/21/4
f 15/21/4 195/107/12 45/19/4
f 45/19/4 172/110/4 102/20/4
f 128/24/7 175/116/13 47/46/34
f 47/46/34 130/117/35 82/118/8
f 82/118/8 129/22/13 153/48/13
f 153/48/13 81/119/36 198/22/7
f 198/22/7 49/47/16 18/1/34
f 18/1/34 48/46/37 104/23/8
f 104/23/8 17/43/13 197/45/13
f 197/45/13 16/45/36 128/24/7
f 128/24/7 47/46/34 82/118/8
f 82/118/8 153/48/13 198/22/7
f 198/22/7 18/1/34 104/23/8
f 104/23/8 197/45/13 128/24/7
f 128/24/7 82/118/8 198/22/7
s 0
f 199/27/38 200/120/38 50/121/38
f 50/121/9 51/122/9 131/123/9
f 131/123/39 52/124/39 83/125/39
f 83/125/9 84/126/9 132/25/9
f 132/25/38 53/127/38 105/128/38
f 105/128/9 54/129/9 85/26/9
f 85/26/9 154/130/9 155/131/9
f 155/131/39 19/132/39 199/27/39
f 199/27/9 50/121/9 131/123/9
f 131/123/9 83/125/9 132/25/9
f 132/25/39 105/128/39 85/26/39
f 85/26/39 155/131/39 199/27/39
f 199/27/9 131/123/9 132/25/9
f 204/30/9 106/133/9 133/134/9
f 133/134/9 201/135/9 202/28/9
f 202/28/39 134/136/39 176/137/39
f 176/137/39 203/138/39 20/29/39
f 20/29/9 86/139/9 107/140/9
f 107/140/9 21/141/9 204/30/9
f 204/30/9 133/134/9 202/28/9
f 202/28/9 176/137/9 20/29/9
f 20/29/9 107/140/9 204/30/9
f 56/33/39 177/142/39 205/143/39
f 205/143/9 87/144/9 206/31/9
f 206/31/39 55/145/39 207/146/39
f 207/146/9 22/147/9 208/32/9
f 208/32/9 178/148/9 88/149/9
f 88/149/9 23/150/9 56/33/9
f 56/33/9 205/143/9 206/31/9
f 206/31/9 207/146/9 208/32/9
f 208/32/9 88/149/9 56/33/9
f 61/36/4 24/14/4 57/85/4
f 57/85/4 58/86/4 59/34/4
f 59/34/12 179/85/12 180/14/12
f 180/14/4 135/36/4 209/35/4
f 209/35/4 156/151/4 60/84/4
f 60/84/12 89/35/12 61/36/12
f 61/36/4 57/85/4 59/34/4
f 59/34/4 180/14/4 209/35/4
f 209/35/4 60/84/4 61/36/4
s 1
f 181/39/11 62/152/40 27/153/11
f 27/153/11 182/154/11 66/155/11
f 66/155/11 91/156/41 90/157/42
f 90/157/42 160/158/41 211/37/10
f 211/37/10 108/159/43 136/160/10
f 136/160/10 159/161/40 65/162/10
f 65/162/10 64/163/42 26/164/11
f 26/164/11 158/165/44 210/38/11
f 210/38/11 157/166/44 25/167/11
f 25/167/11 63/168/45 181/39/11
f 181/39/11 27/153/11 66/155/11
f 66/155/11 90/157/42 211/37/10
f 211/37/10 136/160/10 65/162/10
f 65/162/10 26/164/11 210/38/11
f 210/38/11 25/167/11 181/39/11
f 181/39/11 66/155/11 211/37/10
f 211/37/10 65/162/10 210/38/11
f 212/42/12 28/169/46 29/170/12
f 29/170/12 216/171/12 93/172/4
f 93/172/4 141/40/33 140/173/4
f 140/173/4 110/173/47 68/40/4
f 68/40/4 67/172/12 215/171/4
f 215/171/4 139/170/48 138/169/4
f 138/169/4 183/42/12 137/174/4
f 137/174/4 214/175/12 161/41/4
f 161/41/4 109/41/49 213/175/4
f 213/175/4 92/174/31 212/42/12
f 212/42/12 29/170/12 93/172/4
f 93/172/4 140/173/4 68/40/4
f 68/40/4 215/171/4 138/169/4
f 138/169/4 137/174/4 161/41/4
f 161/41/4 213/175/4 212/42/12
f 212/42/12 93/172/4 68/40/4
f 68/40/4 138/169/4 161/41/4
