# Blender 4.3.2
# www.blender.org
mtllib pyramid.mtl
o Cube
v -0.026933 1.076752 0.007292
v 0.007292 1.076752 0.026933
v 0.026933 1.076752 -0.007292
v -0.007293 1.076752 -0.026933
v -1.150995 -0.274455 -0.644347
v -1.156931 -0.263923 -0.641163
v -1.137044 -0.274455 -0.668658
v -1.137290 -0.263923 -0.675389
v 0.644346 -0.274455 -1.150995
v 0.641163 -0.263923 -1.156931
v 0.668657 -0.274455 -1.137044
v 0.675389 -0.263923 -1.137290
v -0.644347 -0.274455 1.150995
v -0.641163 -0.263923 1.156931
v -0.668657 -0.274455 1.137044
v -0.675389 -0.263923 1.137290
v 1.150995 -0.274455 0.644347
v 1.156931 -0.263923 0.641163
v 1.137044 -0.274455 0.668657
v 1.137290 -0.263923 0.675389
vn -0.2154 0.5663 -0.7955
vn 0.6220 0.6969 0.3569
vn 0.6220 0.6969 0.3570
vn -0.3569 0.6969 0.6220
vn 0.3569 0.6969 -0.6220
vn -0.0000 1.0000 -0.0000
vn -0.7955 0.5663 0.2154
vn 0.7955 0.5663 -0.2154
vn 0.2154 0.5663 0.7955
vn -0.6220 0.6969 -0.3570
vn -0.6220 0.6969 -0.3569
vn -0.8216 -0.3205 -0.4715
vn 0.4715 -0.3205 -0.8216
vn 0.8216 -0.3206 0.4715
vn 0.8216 -0.3205 0.4715
vn -0.4715 -0.3205 0.8216
vn -0.2218 -0.5288 -0.8193
vn 0.8192 -0.5288 -0.2218
vn 0.8193 -0.5288 -0.2218
vn 0.2218 -0.5288 0.8193
vn 0.2218 -0.5288 0.8192
vn -0.8192 -0.5288 0.2218
vn -0.8193 -0.5288 0.2218
vn -0.0000 -1.0000 -0.0000
vt 0.560218 0.003565
vt 0.286100 0.280781
vt 0.010257 0.003729
vt 0.012265 0.570701
vt 0.279344 0.287295
vt 0.286112 0.293802
vt 0.292869 0.287282
vt 0.561950 0.570574
vt 0.568646 0.562187
vt 0.568590 0.010249
vt 0.003569 0.012103
vt 0.003881 0.564010
vt 0.572225 0.006689
vt 0.562961 0.000100
vt 0.000100 0.009358
vt 0.009519 0.574167
vt 0.572117 0.564935
vt 0.000246 0.567573
vt 0.576919 0.000100
vt 0.999900 0.004594
vt 0.995406 0.427575
vt 0.006698 0.000100
vt 0.565513 0.574202
vt 0.576920 0.427575
vt 0.572425 0.423080
vt 0.572425 0.004594
vt 0.995406 0.000100
vt 0.999900 0.423080
s 1
usemtl Material.001
f 8/1/1 4/2/1 10/3/1
f 20/4/2 3/5/3 2/6/3
f 1/7/4 14/8/4 2/6/4
f 3/5/5 10/3/5 4/2/5
f 2/6/6 4/2/6 1/7/6
f 16/9/7 1/7/7 6/10/7
f 12/11/8 3/5/8 18/12/8
f 20/4/9 2/6/9 14/8/9
f 1/7/10 8/1/11 6/10/11
f 5/13/12 8/1/12 7/14/12
f 11/15/13 10/3/13 12/11/13
f 19/16/14 18/12/15 20/4/14
f 15/17/16 14/8/16 16/9/16
f 10/3/17 7/14/17 8/1/17
f 12/11/18 17/18/19 11/15/18
f 14/8/20 19/16/21 20/4/21
f 16/9/22 5/13/23 15/17/22
f 19/19/24 15/20/24 7/21/24
f 20/4/2 18/12/2 3/5/3
f 1/7/4 16/9/4 14/8/4
f 3/5/5 12/11/5 10/3/5
f 2/6/6 3/5/6 4/2/6
f 1/7/10 4/2/10 8/1/11
f 5/13/12 6/10/12 8/1/12
f 11/15/13 9/22/13 10/3/13
f 19/16/14 17/18/15 18/12/15
f 15/17/16 13/23/16 14/8/16
f 10/3/17 9/22/17 7/14/17
f 12/11/18 18/12/19 17/18/19
f 14/8/20 13/23/20 19/16/21
f 16/9/22 6/10/23 5/13/23
f 7/21/24 9/24/24 11/25/24
f 11/25/24 17/26/24 19/19/24
f 19/19/24 13/27/24 15/20/24
f 15/20/24 5/28/24 7/21/24
f 7/21/24 11/25/24 19/19/24
